<svg width="640" height="480" viewBox="0 0 640 480" xmlns="http://www.w3.org/2000/svg" role="img" aria-labelledby="title desc">
  <title id="title">Karaoke equipment placeholder</title>
  <desc id="desc">Stylized illustration of karaoke gear for missing product images.</desc>
  <defs>
    <linearGradient id="bg" x1="0%" y1="0%" x2="100%" y2="100%">
      <stop offset="0%" stop-color="#0f6cbd"/>
      <stop offset="100%" stop-color="#153f6d"/>
    </linearGradient>
    <linearGradient id="accent" x1="0%" y1="0%" x2="0%" y2="100%">
      <stop offset="0%" stop-color="#ffb347"/>
      <stop offset="100%" stop-color="#ff6b00"/>
    </linearGradient>
  </defs>
  <rect width="640" height="480" fill="url(#bg)" rx="24"/>
  <g fill="none" stroke="#dbeafe" stroke-width="10" stroke-linecap="round" stroke-linejoin="round" opacity="0.45">
    <rect x="110" y="130" width="200" height="230" rx="18"/>
    <rect x="330" y="150" width="200" height="190" rx="20"/>
  </g>
  <g fill="none" stroke="#ffffff" stroke-width="12" stroke-linecap="round" stroke-linejoin="round">
    <rect x="126" y="146" width="168" height="198" rx="16"/>
    <circle cx="210" cy="340" r="26"/>
    <path d="M168 196h94M168 238h94M168 280h64"/>
    <rect x="362" y="178" width="140" height="134" rx="14"/>
    <path d="M362 230h140"/>
  </g>
  <g fill="url(#accent)">
    <rect x="182" y="320" width="56" height="10" rx="5"/>
    <rect x="382" y="272" width="80" height="16" rx="8"/>
    <circle cx="452" cy="206" r="12"/>
    <circle cx="392" cy="206" r="12"/>
  </g>
  <path d="M292 356c18 30 58 54 104 46" fill="none" stroke="#dbeafe" stroke-width="10" stroke-linecap="round" stroke-linejoin="round" opacity="0.6"/>
</svg>